<svg xmlns="http://www.w3.org/2000/svg" viewBox="0 0 512 512" width="512" height="512">
  <defs>
    <linearGradient id="grad1" x1="0%" y1="0%" x2="100%" y2="100%">
      <stop offset="0%" style="stop-color:#3182ce;stop-opacity:1" />
      <stop offset="100%" style="stop-color:#805ad5;stop-opacity:1" />
    </linearGradient>
  </defs>
  <rect width="512" height="512" rx="80" fill="url(#grad1)"/>
  <path d="M256 120c-75 0-136 61-136 136s61 136 136 136 136-61 136-136-61-136-136-136zm0 240c-57.4 0-104-46.6-104-104s46.6-104 104-104 104 46.6 104 104-46.6 104-104 104z" fill="white" opacity="0.9"/>
  <circle cx="200" cy="200" r="8" fill="white"/>
  <circle cx="312" cy="200" r="8" fill="white"/>
  <path d="M180 280c0 20 15 36 35 40 5 1 10 1 15 0 20-4 35-20 35-40" stroke="white" stroke-width="16" fill="none" stroke-linecap="round"/>
  <rect x="120" y="360" width="272" height="32" rx="16" fill="white" opacity="0.9"/>
  <rect x="140" y="380" width="80" height="12" rx="6" fill="url(#grad1)"/>
  <rect x="240" y="380" width="120" height="12" rx="6" fill="url(#grad1)"/>
</svg>

